HIERARCHY
ROOT Hips
{
	OFFSET -0.001795 -0.223333 0.028219
	CHANNELS 6 Xposition Yposition Zposition Zrotation Yrotation Xrotation 
	JOINT LeftUpLeg
	{
		OFFSET 0.069520 -0.091406 -0.006815
		CHANNELS 3 Zrotation Yrotation Xrotation
		JOINT LeftLeg
		{
			OFFSET 0.034277 -0.375199 -0.004496
			CHANNELS 3 Zrotation Yrotation Xrotation
			JOINT LeftFoot
			{
				OFFSET -0.013596 -0.397961 -0.043693
				CHANNELS 3 Zrotation Yrotation Xrotation
				JOINT LeftToe
				{
					OFFSET 0.026358 -0.055791 0.119288
					CHANNELS 3 Zrotation Yrotation Xrotation
					End Site
					{
						OFFSET 0.000000 0.000000 0.000000
					}
				}
			}
		}
	}
	JOINT RightUpLeg
	{
		OFFSET -0.067670 -0.090522 -0.004320
		CHANNELS 3 Zrotation Yrotation Xrotation
		JOINT RightLeg
		{
			OFFSET -0.038290 -0.382569 -0.008850
			CHANNELS 3 Zrotation Yrotation Xrotation
			JOINT RightFoot
			{
				OFFSET 0.015774 -0.398415 -0.042312
				CHANNELS 3 Zrotation Yrotation Xrotation
				JOINT RightToe
				{
					OFFSET -0.025372 -0.048144 0.123348
					CHANNELS 3 Zrotation Yrotation Xrotation
					End Site
					{
						OFFSET 0.000000 0.000000 0.000000
					}
				}
			}
		}
	}
	JOINT Spine
	{
		OFFSET -0.002533 0.108963 -0.026696
		CHANNELS 3 Zrotation Yrotation Xrotation
		JOINT Spine1
		{
			OFFSET 0.005487 0.135180 0.001092
			CHANNELS 3 Zrotation Yrotation Xrotation
			JOINT Spine2
			{
				OFFSET 0.001457 0.052922 0.025425
				CHANNELS 3 Zrotation Yrotation Xrotation
				JOINT Neck
				{
					OFFSET -0.002778 0.213870 -0.042857
					CHANNELS 3 Zrotation Yrotation Xrotation
					JOINT Head
					{
						OFFSET 0.005152 0.064970 0.051349
						CHANNELS 3 Zrotation Yrotation Xrotation
						End Site
						{
							OFFSET 0.000000 0.000000 0.000000
						}
					}
				}
				JOINT LeftShoulder
				{
					OFFSET 0.078845 0.121749 -0.034090
					CHANNELS 3 Zrotation Yrotation Xrotation
					JOINT LeftArm
					{
						OFFSET 0.090977 0.030469 -0.008868
						CHANNELS 3 Zrotation Yrotation Xrotation
						JOINT LeftForeArm
						{
							OFFSET 0.259612 -0.012772 -0.027456
							CHANNELS 3 Zrotation Yrotation Xrotation
							JOINT LeftHand
							{
								OFFSET 0.249234 0.008986 -0.001171
								CHANNELS 3 Zrotation Yrotation Xrotation
								End Site
								{
									OFFSET 0.000000 0.000000 0.000000
								}
							}
						}
					}
				}
				JOINT RightShoulder
				{
					OFFSET -0.081759 0.118833 -0.038615
					CHANNELS 3 Zrotation Yrotation Xrotation
					JOINT RightArm
					{
						OFFSET -0.096012 0.032551 -0.009143
						CHANNELS 3 Zrotation Yrotation Xrotation
						JOINT RightForeArm
						{
							OFFSET -0.253742 -0.013329 -0.021401
							CHANNELS 3 Zrotation Yrotation Xrotation
							JOINT RightHand
							{
								OFFSET -0.255298 0.007772 -0.005559
								CHANNELS 3 Zrotation Yrotation Xrotation
								End Site
								{
									OFFSET 0.000000 0.000000 0.000000
								}
							}
						}
					}
				}
			}
		}
	}
}
MOTION
Frames: 16
Frame Time: 0.050000
0.000000 0.945431 0.000000 1.028599 14.706266 7.249734 5.396526 -0.691579 -8.283081 -0.934818 -0.003558 2.148840 12.628015 24.649278 18.535040 0.000000 0.000000 0.000000 -6.444577 0.394684 -15.839640 -0.257510 0.122220 3.286940 11.598978 18.444647 13.404187 0.000000 0.000000 0.000000 8.317443 -2.158477 13.784883 2.306698 -1.129037 -0.061975 -3.749051 -0.565007 4.613501 11.797355 -7.060173 -9.134164 0.000000 0.000000 0.000000 -12.977310 -32.888864 13.360239 -36.439681 -35.249317 6.035016 39.701890 -66.672548 -25.111799 0.000000 0.000000 0.000000 20.141096 19.070706 11.312244 52.201944 35.603180 10.560369 -20.641061 50.758522 -6.124242 0.000000 0.000000 0.000000 
-0.000429 0.943901 -0.000521 0.832627 14.458067 7.678915 5.071450 -0.701596 -8.402652 0.025222 -0.066372 1.488499 12.832363 24.883699 18.448895 0.000000 0.000000 0.000000 -6.823032 0.362204 -15.895364 0.789652 -0.061321 2.270187 11.743830 18.540392 13.651706 0.000000 0.000000 0.000000 8.485004 -2.171671 13.584543 2.720737 -1.224567 -0.953649 -3.517504 -0.089034 5.558044 12.896645 -8.299635 -7.710575 0.000000 0.000000 0.000000 -14.208179 -31.939717 13.029125 -32.929730 -36.912216 5.643920 42.721351 -66.936711 -27.334487 0.000000 0.000000 0.000000 19.936681 18.417928 11.047512 53.663123 35.860576 11.017053 -19.579738 51.867735 -5.595974 0.000000 0.000000 0.000000 
-0.000774 0.944182 -0.000618 0.577260 14.186088 7.682391 5.754657 -0.729175 -8.992833 -0.700099 -0.036488 2.463064 13.085807 25.188573 18.551393 0.000000 0.000000 0.000000 -6.390432 0.436651 -16.059608 0.546952 -0.022482 2.305649 11.904521 18.687121 13.857412 0.000000 0.000000 0.000000 8.935756 -2.089486 12.570031 3.243528 -1.548370 -0.221057 -4.465373 -0.743124 4.152541 12.666756 -8.661184 -5.653935 0.000000 0.000000 0.000000 -13.208734 -32.441150 13.242282 -31.703729 -38.592442 5.851770 40.076927 -60.616622 -22.472686 0.000000 0.000000 0.000000 20.678125 18.425152 10.946821 53.158746 34.351107 10.243008 -14.679328 53.658651 -3.678261 0.000000 0.000000 0.000000 
-0.000832 0.943799 -0.000410 0.534057 14.207857 7.786243 5.529066 -0.743851 -9.187372 -0.201775 -0.092890 2.613815 13.093055 25.205444 18.490444 0.000000 0.000000 0.000000 -6.645854 0.402056 -15.912528 1.032910 -0.102554 1.969534 11.898350 18.771402 13.717892 0.000000 0.000000 0.000000 9.435844 -2.052569 11.753784 3.294347 -1.688051 0.772336 -4.346015 -0.985997 3.482598 13.556757 -9.179429 -6.071569 0.000000 0.000000 0.000000 -12.801724 -33.323007 13.695060 -28.983385 -38.895731 5.245478 43.145313 -57.702980 -22.961610 0.000000 0.000000 0.000000 18.227740 17.987373 10.072742 54.388207 35.159513 11.266709 -13.979163 53.769804 -3.427995 0.000000 0.000000 0.000000 
-0.000888 0.943772 0.000018 0.888959 14.391094 7.692488 4.891634 -0.733321 -8.893064 0.288044 -0.134237 2.424506 12.903725 24.981982 18.460501 0.000000 0.000000 0.000000 -6.991340 0.340936 -15.803731 0.880648 -0.071716 2.490596 11.740357 19.006758 12.921090 0.000000 0.000000 0.000000 9.554885 -2.073165 11.766094 4.226269 -2.056560 0.129959 -5.296456 -1.515380 3.658659 13.559998 -9.375825 -5.463306 0.000000 0.000000 0.000000 -12.752997 -33.566572 13.859623 -25.430768 -40.279666 4.562050 43.276438 -53.928712 -21.209130 0.000000 0.000000 0.000000 17.847704 17.822269 9.850635 53.773093 34.336616 10.667227 -10.717554 55.500630 -1.928501 0.000000 0.000000 0.000000 
-0.000911 0.944529 0.000388 0.757244 13.624987 7.661249 4.578010 -0.719984 -8.750343 0.958740 -0.205456 2.468021 13.290183 25.398056 19.058073 0.000000 0.000000 0.000000 -6.751765 0.409737 -15.941483 0.655620 -0.027546 2.796890 12.067027 19.683324 12.748249 0.000000 0.000000 0.000000 9.476125 -2.067357 11.895923 4.576705 -2.251384 0.378841 -5.158429 -1.533324 2.882969 13.510790 -9.196586 -5.799676 0.000000 0.000000 0.000000 -12.192938 -32.953531 13.523557 -23.732784 -41.474442 4.331512 44.286456 -50.228352 -20.019483 0.000000 0.000000 0.000000 17.731049 17.735948 9.634965 52.573710 33.874095 10.177636 -8.491821 56.574812 -0.930486 0.000000 0.000000 0.000000 
-0.000927 0.944563 0.000653 0.948648 13.083174 7.773040 4.267487 -0.697632 -8.414870 1.059018 -0.188357 1.945888 13.553207 25.668115 19.404179 0.000000 0.000000 0.000000 -6.961578 0.400779 -16.143467 0.450432 0.010493 2.984086 12.553749 20.618836 12.659790 0.000000 0.000000 0.000000 9.385662 -2.010841 11.682838 4.629659 -2.241386 0.129507 -5.468644 -1.922797 2.860831 13.572035 -9.305228 -5.622412 0.000000 0.000000 0.000000 -11.881128 -32.365218 13.285895 -21.966364 -41.975953 3.889884 45.159628 -47.604308 -19.178662 0.000000 0.000000 0.000000 18.123765 17.280599 9.291007 51.630518 33.209926 9.585761 -5.308320 58.143423 0.671479 0.000000 0.000000 0.000000 
-0.000920 0.944809 0.000726 0.781253 12.203814 7.706340 4.212720 -0.670164 -8.106476 1.311748 -0.205134 1.759380 14.059204 26.192696 19.921149 0.000000 0.000000 0.000000 -6.692295 0.477741 -16.287435 0.353759 0.031132 3.063715 12.923776 21.115552 12.872450 0.000000 0.000000 0.000000 9.475317 -2.073808 12.107387 4.364119 -1.999979 -0.790615 -5.382742 -2.043460 3.511891 13.283095 -9.121783 -5.700490 0.000000 0.000000 0.000000 -12.104612 -31.721190 13.137268 -21.395009 -42.623907 3.777360 46.655822 -45.303005 -18.745139 0.000000 0.000000 0.000000 18.307479 16.769253 8.890150 50.749737 32.435268 8.922464 -2.065815 59.868902 2.462458 0.000000 0.000000 0.000000 
-0.000999 0.944585 0.000971 0.667030 11.568298 7.829525 4.287153 -0.651223 -7.887090 1.304463 -0.182495 1.330614 14.450159 26.596954 20.230284 0.000000 0.000000 0.000000 -6.593808 0.521542 -16.532097 0.316674 0.033554 2.803784 13.582443 21.795794 13.574249 0.000000 0.000000 0.000000 9.744364 -2.077241 11.892246 4.279668 -1.948561 -0.875812 -5.616376 -2.238559 3.631219 13.030248 -8.752250 -6.407587 0.000000 0.000000 0.000000 -12.737871 -31.224756 13.113576 -21.633854 -42.476418 3.832172 47.815416 -43.713154 -18.468483 0.000000 0.000000 0.000000 18.657749 16.256249 8.520870 50.094043 32.097364 8.589731 -0.705964 60.235719 3.165383 0.000000 0.000000 0.000000 
-0.001223 0.944087 0.001618 0.773312 11.256787 7.820156 4.377019 -0.627476 -7.563655 0.929695 -0.129011 0.988464 14.647347 26.797218 20.272482 0.000000 0.000000 0.000000 -6.488975 0.549885 -16.656401 0.116785 0.067638 2.911917 13.594579 21.788026 13.588515 0.000000 0.000000 0.000000 9.891230 -2.122877 12.077468 4.133730 -1.801205 -1.596539 -5.745193 -2.771187 4.016208 12.744893 -8.395445 -7.101647 0.000000 0.000000 0.000000 -13.779095 -30.913003 13.312578 -21.747824 -41.942150 3.773314 48.911967 -42.206078 -18.141564 0.000000 0.000000 0.000000 18.713185 15.964952 8.189672 49.604525 31.149395 8.026038 2.174291 60.968790 4.756866 0.000000 0.000000 0.000000 
-0.001593 0.943420 0.002605 0.627752 11.076670 7.648155 4.613278 -0.605111 -7.271347 0.820866 -0.115963 0.929694 14.803053 26.962246 20.175743 0.000000 0.000000 0.000000 -6.307299 0.580232 -16.518034 0.150551 0.063582 2.926149 13.688808 22.001653 13.522990 0.000000 0.000000 0.000000 10.018331 -2.110153 11.917825 3.866780 -1.636376 -2.012136 -5.746687 -3.367322 4.447532 12.753437 -8.420309 -7.259391 0.000000 0.000000 0.000000 -15.298447 -30.483096 13.561072 -22.022761 -41.451952 3.758852 48.182556 -41.777320 -17.503751 0.000000 0.000000 0.000000 19.176243 15.555035 7.823607 49.347643 29.785467 7.331406 5.526163 60.552569 6.488425 0.000000 0.000000 0.000000 
-0.002026 0.942848 0.003722 0.500125 11.207960 7.440021 4.895207 -0.576066 -6.799197 0.665725 -0.083494 0.538615 14.743385 26.893305 19.952954 0.000000 0.000000 0.000000 -6.186935 0.587057 -16.200442 0.261727 0.045208 2.880536 13.573149 21.990106 13.261021 0.000000 0.000000 0.000000 9.954863 -2.065298 11.719313 3.765164 -1.541224 -2.495719 -5.978074 -3.544720 4.652558 12.695576 -8.469743 -6.974205 0.000000 0.000000 0.000000 -16.460892 -30.464362 13.793798 -22.700232 -40.882900 3.863108 47.652191 -41.425423 -17.106475 0.000000 0.000000 0.000000 20.254825 15.107741 7.679667 48.296028 27.521523 6.092979 9.158573 60.022604 8.443198 0.000000 0.000000 0.000000 
-0.002486 0.942733 0.004906 0.445289 11.539220 7.303814 5.134268 -0.566738 -6.599246 0.487848 -0.063030 0.443336 14.545289 26.679920 19.742772 0.000000 0.000000 0.000000 -5.954906 0.600496 -15.858360 0.029749 0.076095 2.761933 13.355422 21.825375 12.964800 0.000000 0.000000 0.000000 9.982776 -1.997290 11.244424 3.378696 -1.328862 -2.893029 -5.944923 -3.993558 5.223198 12.645769 -8.435358 -7.180003 0.000000 0.000000 0.000000 -17.960943 -30.673491 14.310211 -22.726566 -40.309964 3.744911 46.942925 -40.996086 -16.560785 0.000000 0.000000 0.000000 20.923758 14.546080 7.354425 47.583388 24.935913 4.832988 12.648511 59.266741 10.211141 0.000000 0.000000 0.000000 
-0.003018 0.942769 0.006182 0.407175 11.744780 6.973018 5.428407 -0.533582 -5.962367 0.162039 -0.016681 0.005962 14.386598 26.488699 19.623317 0.000000 0.000000 0.000000 -5.914529 0.586333 -15.323583 0.138131 0.056144 2.645645 13.247645 21.744867 12.816076 0.000000 0.000000 0.000000 9.930393 -1.911687 10.799788 3.081497 -1.114800 -3.769334 -6.186186 -4.201880 6.580628 12.848472 -8.443483 -8.134923 0.000000 0.000000 0.000000 -18.536675 -30.846971 14.555859 -23.598320 -39.768768 3.804965 47.686817 -41.008781 -16.863813 0.000000 0.000000 0.000000 21.715462 14.011951 7.154029 46.959809 23.072679 3.832135 15.349908 58.692987 11.633316 0.000000 0.000000 0.000000 
-0.003740 0.942906 0.007855 0.230250 11.982234 6.828794 5.746792 -0.520480 -5.601893 0.100139 0.001050 -0.326088 14.224176 26.299983 19.568921 0.000000 0.000000 0.000000 -5.744129 0.594653 -15.012967 0.300085 0.028765 2.555510 13.132648 21.597734 12.744914 0.000000 0.000000 0.000000 9.916916 -1.827583 10.263914 2.612728 -0.868154 -4.252564 -6.089525 -4.263663 7.278681 12.961804 -8.532265 -8.313408 0.000000 0.000000 0.000000 -19.868477 -30.535243 14.649091 -24.662405 -38.433842 3.806156 49.787847 -43.075066 -18.733096 0.000000 0.000000 0.000000 22.314997 13.103594 6.715568 46.917159 20.942319 2.890834 18.768480 58.873501 13.667431 0.000000 0.000000 0.000000 
-0.004650 0.943098 0.010012 -0.033848 12.315630 6.504396 6.272431 -0.506621 -5.091633 -0.113435 0.027694 -0.596583 14.009050 26.049538 19.443843 0.000000 0.000000 0.000000 -5.470946 0.608644 -14.577523 0.487200 0.001035 2.637792 12.964129 21.410919 12.595348 0.000000 0.000000 0.000000 9.814014 -1.725275 9.715513 2.371545 -0.761104 -4.264261 -5.866994 -4.536414 7.560396 13.237145 -8.491704 -9.356327 0.000000 0.000000 0.000000 -20.520426 -29.838513 14.400014 -27.184812 -36.643889 4.048713 54.311481 -46.186047 -22.435858 0.000000 0.000000 0.000000 22.258129 12.208858 6.142189 47.312412 18.999872 2.148473 22.345055 60.439848 16.253723 0.000000 0.000000 0.000000 
